<svg id="Layer_1" data-name="Layer 1" xmlns="http://www.w3.org/2000/svg" viewBox="0 0 250 100"><defs><style>.cls-1{fill:#2a2a2a;}</style></defs><title>Artboard 1Rose_logo</title><path class="cls-1" d="M247.56,71.42A11.43,11.43,0,0,0,242.64,67c-5.51-2-12,1.21-15.77,5.13-2.65,2.74-7.62,13.56-12.56,10.61s.43-14.07.35-18.07c-.12-6.26-5.1-7.26-8.13-2.3A10,10,0,0,0,204.9,66a10.7,10.7,0,0,0-3.25-2.58c-2.78-1.28-5.54-.8-8.25.54-5.31,2.63-8.73,8.25-7.46,16.82,0,0-2.64,4.72-4.31-1.66-.6-2.28-.58-8.26-.43-10.38.56-7.62.35-15.31.34-22.94,0-5,0-7.36,0-12.4,0-1.37-.26-5.23-.31-7.42,5.16-2.89,8.24-2.86,9.8-1.64,3.39,2.66,3.25,5.53,5.15,7.23s5.39,1.46,5.59-2.37c.17-3.17-3-5.32-4.62-6.5A16.37,16.37,0,0,0,190,20c-2.88-.42-7,.77-9.76,1.43A43.47,43.47,0,0,0,178,13.94a34.54,34.54,0,0,0-4.48-7.7C171.61,4,168.56,2,163.1.77a26.62,26.62,0,0,0-24.33,6c-6.18,5.59-9.89,14-8.38,22.33.68,3.73,2.68,8.49,6.22,10.41,3.29,1.78,7.86.89,9.2.89.07,2.54-1.11,9.63-1.35,11.63-.5,4.22-1.12,8.46-1.56,12.85-2.59-4.27-10.69-.25-12.69,2.07-3.67,4.25-6,12.54-3.87,18,1.53,4,6,6.88,9.66,5.88,2.83-.76,5.61-4.68,7.68-6.67a3.82,3.82,0,0,0,1.25,1.74c2.1,1.8,3,2.24,6.84,2,2.47-.12,4.06-1.1,6-2.68,3.34,2.57,6.77,4.21,11.91.38a13.4,13.4,0,0,0,3.15-3c.63,2,.81,4.34,5,5.55,1.58.45,3.23-.11,4.9-1.24,1-.69,3.59-3.39,3.82-3.38.41.63,1.56,3.27,3.24,4.22a7.15,7.15,0,0,0,3.76,1c3,.17,4.73-.88,6.92-2.69,1.72-1.43,1.94-1.88,2.56-2.3a8.21,8.21,0,0,0,1.53,3.12,8.76,8.76,0,0,0,6.59,3.7c7.21.5,10.89-5.76,14.1-10.75,2.91-4.52,9.72-12.23,14.67-6.46,1.45,1.68,5.1,11.8,9.09,7.26C250.73,78.77,248.65,73.08,247.56,71.42ZM137,84.93c-1.87-.17-3.55-3-2.37-10.85,1.28-5.82,5-8.19,7.89-5.13a88,88,0,0,0,.2,12.43C140.47,84,139.19,85.13,137,84.93Zm10.21-64.81c-.3,3.55-.54,9.16-.87,12.71a13.15,13.15,0,0,1-4.25-.06c-2.49-.43-5.44-1.19-6.63-10,0-7.45,3.14-11.86,6.78-14.5C150,2.72,158,1.26,164,4.45a13.52,13.52,0,0,1,6.78,8.64,54.4,54.4,0,0,1,1.85,11l-3,1.2c-4.06,1.56-5.75,2.5-10.19,4.33-1.26.52-4.68,1.66-4.68,1.66s.25-2.8.28-4.1c0-1.86.06-3.66.25-5.87-.3-3.39-.64-5.41-3.89-5.86C149.62,15.73,147.39,18.26,147.23,20.13Zm25.51,59.57c-1.71,1.74-4.66,4-6.77,0-1.54-2.9.14-8.67,3.08-10.1,1.4-.68,3.26-.55,3.69.1C172.75,72.48,172.65,77.08,172.75,79.69Zm.12-14.44a9.56,9.56,0,0,0-3.63-1.71,10.75,10.75,0,0,0-2.51,0c-4.14.42-6.46,2-8.45,5.29a19,19,0,0,0-3,11.35,7.17,7.17,0,0,0,1.07,3.06c-.41.31-4.34,2.84-4.88-.93a71.52,71.52,0,0,1-.07-13.78c.28-5,1-8.1,1.72-14.32.46-3.24.69-5.75,1-9.17.17-1.72.34-5,.51-6.23a20,20,0,0,1,2.75-1.48c4-2.15,4.89-2.7,8.88-4.81.67-.36,4.57-2.12,6.27-2.77.33,3.77.41,9.6.58,13.52A181.26,181.26,0,0,1,172.86,65.26Zm29.87,14.85A5.84,5.84,0,0,1,199.64,83c-1.36.69-3.06,1.2-4.76-1.41-.52-.8-.68-2.78-.68-4.26,0-4.58,1.26-8.12,5.26-9.12a5.72,5.72,0,0,1,2.73.52,6.37,6.37,0,0,1,1.7,1.56C203.27,73.47,203.37,79,202.73,80.11Z"/><path class="cls-1" d="M56.42,1.62a11.35,11.35,0,0,0-6,0,6.68,6.68,0,0,0-1.64.81c-.25.16-.71.46-.63.69s.62.25,1.15.16A23.21,23.21,0,0,1,52.74,3c1.63,0,3.35.11,4.29.93.78.68.32,1.78-.47,2.62a7.35,7.35,0,0,1-1.56,1C53.33,8.62,52,9.69,52,12.11c.07,1.87-1.2,3.29-3,4.09-2.87,1.24-5.66,2.53-8,4.85-2,2-4.76,1.48-7.31,1.38-.17,0-.48-.53-.44-.76.08-.41.32-1.09.58-1.13,1.7-.26,3.43.3,5.08-1,4.87-3.82,6.49-3.35,8.14-4.77a5.46,5.46,0,0,0,2.14-3.67c.55-2.43-.57-2.9-1.26-4.2-.22-.41-.67-.74-.78-1.16-.28-1.06-.17-2.29-.68-3.19S45,1.25,44.18.61a5.39,5.39,0,0,0-5,0,3.2,3.2,0,0,0-1,1.08C34,.61,31.41,3.42,29.46,6.1l-.62.84a2.73,2.73,0,0,0-2.84,3,8.76,8.76,0,0,1-1.09.71,6.68,6.68,0,0,0-3.55,5.84,2.83,2.83,0,0,1-1.87,3,6,6,0,0,0-3.36,2.92A4.5,4.5,0,0,0,16,25.48a3.61,3.61,0,0,0,2,2.31c1.77.31,3,1,4.44.07,1.07-.67,1.36-.51,2,.71a16.4,16.4,0,0,0,3.92,4.31,7,7,0,0,0,3.31,1.44c3.59.51,5.4,1.06,8.69.52.35-.06.69.29.93.65a3.63,3.63,0,0,1,.22,2.13c-.77,2.21-.91,2.07-3.26,4-4.33,4.27-5.59,4.57-8.94,9.83-1.79,2.81-2.94,5.49-4.43,7.92-1.26-.62-2.51-.84-3.13-1.58A6,6,0,0,1,20,53.06c.26-4,1.62-7.81,1.36-11.87S18.15,32.66,14,31.47c-4.88-1.4-5.31-1.71-11.57-.06a13,13,0,0,1-2.53.16A54.21,54.21,0,0,1,5.26,43a14.09,14.09,0,0,0,3.05,5.71,14.79,14.79,0,0,0,6.5,3.5c.8.24,1.32.14,1.61,1.25.87,3.32,1.9,6.6,5.62,8.08A2.94,2.94,0,0,1,23.23,64c-.08,1.7-.62,3.29-.87,5.06a57.6,57.6,0,0,0,0,12.41,19.77,19.77,0,0,0,1.72,7.13c2.26,4.76,4.64,8.47,9.25,11a5.13,5.13,0,0,0,2.79.39,2.22,2.22,0,0,0,2.07-2.26c.13-1.25-.43-1.48-1.55-1.85a9.74,9.74,0,0,1-3.47-2.38c-3.78-3.64-4.82-6.31-6.11-10.79-.53-1.82-1.19-4.29.4-6.17A25.43,25.43,0,0,1,33,71.84c2.51-1.74,4.76-3.36,7-4.75a5.92,5.92,0,0,0,1.29.59c3.22,1.28,10.34-1,11.73-4C54.58,60.35,56.51,57,56.15,53a61,61,0,0,1,0-7.94,9.06,9.06,0,0,0-1.64-5.79,3.74,3.74,0,0,0-1-.77c-.12.28-.18.87-.26,1.15-.86,3.1-1.92,5.46-4.35,7.33a31.17,31.17,0,0,1-6.07,3.27A12.66,12.66,0,0,0,37,55.23c-1.08,1.88-2.45,3-.8,6.8a13.09,13.09,0,0,0,1.88,2.58,10.56,10.56,0,0,1-1.92,1.73C33.47,68.22,32.64,69,29.79,71c-1.16.81-2.38,1.3-3.35,1.88a30.27,30.27,0,0,1,.21-4.62c.31-3.29,1.71-6.19,3.12-9a51.84,51.84,0,0,1,10.13-14.2c2.85-2.75,5.5-5.79,5.26-10.21-.08-1.41.78-1.78,1.92-2.45,1.72-1,3.75-1.75,5.34-2.68a10.21,10.21,0,0,0,4.68-5.48,14,14,0,0,0,0-10.6c-.32-.86-1.1-1.86-.87-2.53s1.44-1,2.21-1.56a5,5,0,0,0,1.64-5.19C59.77,3.33,57.59,1.89,56.42,1.62ZM19.2,47.86a10.5,10.5,0,0,0-1.12-4c-.44-.61-1.48-1.84-1.76-2.17A16.1,16.1,0,0,0,14,39.66c-.36-.31-1.82-1.47-2.39-1.39a11.86,11.86,0,0,0,1.5,2.82c.92,1.39,1.91,2,2.76,3.58a6.07,6.07,0,0,1,.68,3.21c0,.59-.11,1.27-.14,2a6.78,6.78,0,0,1-3-.56c-2.86-1.71-3.89-3.53-5.37-7C7.29,40.54,6.37,38.8,5.5,37a28.79,28.79,0,0,0-3.15-4.31,31.44,31.44,0,0,1,6.21-.4A9.87,9.87,0,0,1,16.06,35a9.17,9.17,0,0,1,3.31,5A15.15,15.15,0,0,1,19.2,47.86Zm24.19,5.41c3.42-1.84,7-3.5,9.71-6.4.17-.18.56-.52.79-.72a7.65,7.65,0,0,1,.22,1.19c0,1.15,0,2.31,0,3.65.19,4.3-.46,7.67-3.59,11a11.05,11.05,0,0,1-3.48,2.52c-.81.37-2.94,1.07-4.5.43.46-.7,1.94-2.26,2.36-3a14.43,14.43,0,0,0,1.2-2.45c.26-.66,1.61-3.39,1.16-3.5-.61-.16-2.82,2.16-3.31,2.89a31.15,31.15,0,0,1-2.61,3.3,4,4,0,0,1-1.53,1.23,5,5,0,0,1-.9-2.11C38.39,57.42,39.52,55.35,43.39,53.28ZM39.92,2.65a3.8,3.8,0,0,1,2.15-.19c1.27-.08,2.45.85,2.2,3.07-.1.9.72,2,1.27,2.87,1.22,2,1.25,4.14-.61,4.7-3,.9-4.48,3.36-7,5-.73.49-3.29.72-3.64.87a10.84,10.84,0,0,0,2.08-2.09,45.6,45.6,0,0,1,3.53-3.36c.7-.6,1.63-.94,2.29-1.57A3.38,3.38,0,0,0,42.4,7.3a3.55,3.55,0,0,0-1.94-1,2,2,0,0,0-.34-1.45,2.07,2.07,0,0,1-.63-1A1.15,1.15,0,0,1,39.92,2.65Zm-4.27,9.83c.77-.28.86-.26,2.44.75a6.88,6.88,0,0,1-2.56,2,3.1,3.1,0,0,1-3.16-.78A6.66,6.66,0,0,1,35.65,12.47Zm-3-2.59c-.23-1.14.87-1.65,1.49-1.73A1.65,1.65,0,0,1,36,9.2c.22,1,0,1.81-.79,2.08A1.9,1.9,0,0,1,32.61,9.89Zm7.13-2c.85-.42,1.5.28,1.9,1,.47,1.37.07,2.23-2.09,3.22-.83-.86-1.73-.86-2.13-1.31C37.43,7.85,38.57,8.47,39.74,7.89ZM33.36,5.06a6,6,0,0,1,2.47-1.19,6.44,6.44,0,0,1,1.94-.08c.63,1.08,1.55,1.9,1,2.44-1.13,1.07-1.89.56-2.71.4a3.2,3.2,0,0,0-1.64.05c-.88.27-2.56,1.6-3.07.77a9.15,9.15,0,0,1,.86-1.17A8.63,8.63,0,0,1,33.36,5.06ZM27.75,10.8a1.88,1.88,0,0,1,2.36-2c.94.5.81,2.13,2.63,3.29a5.32,5.32,0,0,1-2.63,1.52,1.4,1.4,0,0,1-1.55-.73A5.83,5.83,0,0,1,27.75,10.8Zm-4.19,4.73a5.46,5.46,0,0,1,1.29-2.78,3.69,3.69,0,0,1,1.46-.88c.43.47.54,1.49.9,2.16,1,1.84,3.29,1,4.54,2.39.47.53,1.55.51,2.34.75-.22.73-2.69,2.38-4,2.31-.44.16-1.18-.56-1.4-1.16-.87-2.44-2.08-2.43-3.83-.89a2.77,2.77,0,0,1-1.54.54C23.5,17.61,23.33,16.37,23.56,15.53ZM21.8,25.71a2.9,2.9,0,0,1-2.56-.21c-.49-.24-.65-1.72-.24-2.53.59-1.18,2.81-2.11,3.54-3.27a4,4,0,0,0,2.93-.17C26.9,18.38,27,20.6,27.6,21a3.69,3.69,0,0,0,3.4.6,3.17,3.17,0,0,0,1,2.2.91.91,0,0,1,.19.86,2.27,2.27,0,0,1-1,.78,1.26,1.26,0,0,1-1.44,0c-1.6-1.14-2.24-1.19-4.47-1A14.33,14.33,0,0,0,21.8,25.71Zm14.49,5.72c-2.64-.35-4.95,0-7.48-1.58A8.3,8.3,0,0,1,26.29,27c1.47-1.33,2.54.12,3.83.42a3.21,3.21,0,0,0,2.7-.89c.7-.56.69-1.47,1.28-2.18.49-.21,2.64.47,3.23.48a20.71,20.71,0,0,1,.5,2.25c.23.79.39,1.52.61,2.25a2.73,2.73,0,0,0,1.64,2.08A11,11,0,0,1,36.29,31.43ZM55.73,21.17a15.8,15.8,0,0,1-3,5.1c-2.14,2.34-6.39,3.28-8.5,4-2.52.39-3.26,0-4-1.28a12,12,0,0,1-1.27-4.07,5.13,5.13,0,0,0,1.65-.34c2.17-1.18,4-2.93,6.23-4s5.11-1.72,6.79-3.89a4.69,4.69,0,0,0,.64-3,10.6,10.6,0,0,1,1.67,3.65A8.76,8.76,0,0,1,55.73,21.17Z"/><path class="cls-1" d="M109.65,50.66a13.18,13.18,0,0,0-8.53,2.05,11.8,11.8,0,0,0-3.66,4.9,9.26,9.26,0,0,0,.41,7.18c2.13,3.79,5.8,3.08,6.72,1.19,1-2.14-1.64-2.51-2.18-4.45-1.56-5.62,2.86-6.59,4.28-6.68,5.74-.4,8.33,2.77,9.5,6.44,1.22,3.81.66,8.32-1,12.62-3,7.58-6.07,10.35-12.63,13.93a24.51,24.51,0,0,1-12.91,3,19.43,19.43,0,0,1-9.86-3c-3.66-2.23-6.34-5.5-6.9-9.38-.64-4.44-.89-9.19.79-13.67.76-2,1.12-4.26,2.1-6.18a22.35,22.35,0,0,1,3.87-5.44c5.07-5.17,11.29-7.14,18.54-8.64,2.51-.52,4.92-.87,6.56-2.49s.46-2.25-.94-2.61a9.69,9.69,0,0,0-3,0c-4.25.27-7.6-2.67-9.94-5.9-1.65-2.28-1.32-7.76-.66-11C90.87,19,93,15.89,95.32,13c2.06-2.46,5.68-5.25,8.8-5.49,4-.31,7.62.06,9.93,3.33,1.2,1.69,1.46,4.06,2.45,4.19,1.2.16,1.55-1.42,1.37-2.5-.75-4.5-4.07-9.21-9.71-10C105,2.13,102,1.69,99,2.46c-7.69,2-14.22,9.17-17.12,16.17-1.48,3.58-2.25,9.58-1.07,13.6.6,2,2.24,5.3,4.14,6.83a17.4,17.4,0,0,0,2.37,1.46s-2.4.75-3.15,1.1c-3.18,1.47-6.24,2.88-9.24,4.61-6.18,3.55-11.73,14.85-12.39,21.19a36.16,36.16,0,0,0,.82,13.44,35.51,35.51,0,0,0,5.27,10.71,20.4,20.4,0,0,0,6.06,5.35,20.66,20.66,0,0,0,9,3,89.44,89.44,0,0,0,10.07,0c10.13-1.08,11.69-2.44,16.91-5.43a20.64,20.64,0,0,0,5.95-5,31.36,31.36,0,0,0,4.8-8.57,36.62,36.62,0,0,0,1.5-17.94C121.08,56.46,117.39,51.71,109.65,50.66Z"/></svg>